<svg width="324" height="311" viewBox="0 0 324 311" fill="none" xmlns="http://www.w3.org/2000/svg">
<path d="M7.62939e-05 294.545H220.859V295.401H7.62939e-05V294.545Z" fill="white"/>
<path d="M152.472 290.154C152.472 290.154 164.436 291.075 163.209 295.369C161.982 299.664 152.472 299.051 152.472 299.051C152.472 299.051 145.11 298.437 141.122 299.664C137.134 300.891 132.532 299.664 132.225 297.517C131.918 295.369 134.373 293.836 134.373 293.836L135.907 290.768L152.472 290.154Z" fill="white"/>
<path d="M183.916 194.289L185.143 199.197C185.143 199.197 190.665 210.547 183.916 210.547C177.167 210.547 179.621 200.117 179.621 200.117L179.008 195.209L183.916 194.289Z" fill="#9F616A"/>
<path d="M124.709 190.301L123.482 195.209C123.482 195.209 117.96 206.56 124.709 206.56C131.458 206.56 129.004 196.129 129.004 196.129L129.618 191.221L124.709 190.301Z" fill="#9F616A"/>
<path d="M156.614 106.859C149.328 106.859 143.422 100.953 143.422 93.6682C143.422 86.3829 149.328 80.4771 156.614 80.4771C163.899 80.4771 169.805 86.3829 169.805 93.6682C169.805 100.953 163.899 106.859 156.614 106.859Z" fill="#9F616A"/>
<path d="M160.602 103.792C160.602 103.792 159.068 110.848 159.988 114.222C160.908 117.597 140.968 113.609 140.968 113.609C140.968 113.609 148.024 101.951 147.717 101.645L160.602 103.792Z" fill="#9F616A"/>
<path d="M157.534 111.768C157.534 111.768 163.055 110.234 164.896 112.074C166.737 113.915 177.474 119.13 177.474 119.13L170.111 164.225L138.207 157.17L132.685 114.529C132.685 114.529 141.385 109.427 142.863 110.444C144.342 111.461 157.534 111.768 157.534 111.768Z" fill="#D0CDE1"/>
<path d="M175.02 119.437L176.492 118.647C176.492 118.647 182.075 119.744 181.769 124.039C181.462 128.333 180.235 152.261 180.235 152.261L185.143 195.516L176.247 197.05L167.35 160.851L175.02 119.437Z" fill="#D0CDE1"/>
<path d="M133.606 115.449L132.133 114.659C132.133 114.659 126.55 115.756 126.857 120.05C127.163 124.345 128.391 148.273 128.391 148.273L123.482 191.528L132.379 193.062L141.275 156.863L133.606 115.449Z" fill="#D0CDE1"/>
<path d="M169.804 159.623L171.032 178.336L175.02 215.762L169.191 293.375L148.944 293.989L155.079 220.057L148.944 194.595L128.889 193.852C128.889 193.852 127.47 164.532 138.821 155.329L169.804 159.623Z" fill="#6C63FF"/>
<path d="M147.717 190.3L150.938 257.943L152.012 292.148L133.912 293.989L129.346 193.396L136.367 186.312L147.717 190.3Z" fill="#6C63FF"/>
<path d="M150.785 76.1824C150.785 76.1824 162.749 74.6485 166.123 80.4772C166.123 80.4772 167.044 84.7719 170.111 86.3058C173.179 87.8396 169.498 93.0547 168.577 94.5886C167.657 96.1224 165.203 105.019 167.964 107.166C170.725 109.314 163.056 115.449 163.056 115.449C163.056 115.449 159.374 120.357 162.442 124.038C165.51 127.72 158.454 128.947 158.454 128.947C158.454 128.947 159.988 139.377 157.227 136.616C157.227 136.616 156 160.237 144.343 145.512C132.685 130.787 127.777 123.732 132.685 117.903C137.594 112.074 133.913 106.859 133.913 106.859C133.913 106.859 132.379 103.792 135.753 99.1901C139.128 94.5886 139.128 76.1824 150.785 76.1824Z" fill="#2F2E41"/>
<path d="M168.117 291.995C168.117 291.995 180.081 292.915 178.854 297.21C177.627 301.505 168.117 300.891 168.117 300.891C168.117 300.891 160.755 300.278 156.767 301.505C152.779 302.732 148.177 301.505 147.871 299.358C147.564 297.21 150.018 295.676 150.018 295.676L151.552 292.609L168.117 291.995Z" fill="white"/>
<path d="M316.69 71.0179C318.588 68.201 319.404 63.198 315.875 60.7324C314.124 59.5097 311.999 59.6589 310.16 60.1969C307.616 60.9412 305.353 62.4585 303.396 64.156C301.138 66.114 299.205 68.4095 297.299 70.7059C295.418 72.973 293.511 75.2137 291.511 77.3746C287.569 81.6314 283.361 85.6331 278.911 89.3554C274.55 93.0078 269.963 96.3823 265.179 99.4592C262.803 100.985 260.377 102.434 257.9 103.805C255.601 105.126 253.222 106.305 250.778 107.336C247.527 108.643 241.957 110.47 239.074 106.803C237.546 104.858 237.469 102.22 237.815 100.004C238.232 97.3245 239.284 94.824 240.321 92.3816C245.143 81.0207 250.022 69.6871 254.872 58.3403C256.004 55.692 257.17 53.0539 258.111 50.3169C258.991 47.7544 259.724 45.0526 259.741 42.2617C259.757 39.8241 259.227 37.0732 257.373 35.1956C255.835 33.6384 253.68 33.123 251.651 33.1348C246.628 33.1641 241.908 35.721 238.006 38.416C233.159 41.7643 228.878 45.8317 224.049 49.2052C220.15 51.929 215.565 54.3974 210.59 54.7099C208.682 54.8297 206.657 54.5753 204.919 53.533C203.258 52.4901 202.048 50.8622 201.528 48.9706C200.877 46.7782 200.958 44.4622 201.304 42.3012C201.735 39.7706 202.519 37.3128 203.632 34.9992C205.984 29.9724 209.199 25.4677 211.967 20.6967C213.324 18.3569 214.65 15.9455 215.496 13.3358C216.213 11.1249 216.796 8.50801 216.088 6.11085C214.627 1.16494 208.686 3.02603 205.674 4.45373C203.633 5.45631 201.666 6.60194 199.787 7.88204C199.383 8.14949 198.989 7.44002 199.392 7.17382C201.365 5.82335 203.439 4.62767 205.596 3.5975C207.432 2.75725 209.454 2.02429 211.56 2.06457C213.329 2.09841 215.113 2.83949 216.151 4.42235C217.38 6.29515 217.295 8.71644 216.964 10.7257C216.527 13.3827 215.483 15.8372 214.279 18.1726C213.012 20.6323 211.565 22.9841 210.11 25.3254C207.202 30.0038 204.017 34.7367 202.566 40.1986C201.552 44.0193 200.911 49.9869 205.04 52.7135C206.873 53.9239 209.119 54.099 211.148 53.871C213.599 53.5955 215.933 52.7808 218.114 51.7574C228.282 46.9853 235.055 37.0767 245.894 33.4123C249.58 32.1664 254.737 31.3709 257.981 34.74C259.665 36.4902 260.341 38.9201 260.493 41.2033C260.675 43.938 260.104 46.6293 259.328 49.1619C258.467 51.816 257.466 54.4225 256.329 56.9703C255.114 59.8176 253.897 62.664 252.679 65.5097L245.293 82.7873L241.623 91.3718C240.503 93.9918 239.302 96.6246 238.719 99.4649C238.24 101.791 238.105 104.991 240.153 106.862C241.78 108.347 244.157 108.279 246.061 107.934C248.527 107.487 250.847 106.51 253.055 105.433C255.602 104.19 258.081 102.812 260.515 101.378C265.526 98.4224 270.335 95.1385 274.912 91.5482C279.506 87.949 283.866 84.0604 287.966 79.906C290.038 77.8058 292.04 75.6388 293.973 73.4048C295.964 71.1015 297.834 68.6891 299.897 66.4495C301.763 64.4237 303.805 62.5458 306.179 61.117C308.162 59.924 310.506 58.9265 312.944 59.005C313.804 59.029 314.65 59.2339 315.425 59.6061C316.201 59.9784 316.89 60.5097 317.447 61.1656C318.538 62.5224 319.128 64.2142 319.116 65.9553C319.104 67.9204 318.497 69.8358 317.377 71.4502C317.106 71.8526 316.418 71.422 316.69 71.0178V71.0179Z" fill="#E6E6E6"/>
<path d="M285.608 5.47168H318.164V34.3779H285.608V5.47168Z" fill="white"/>
<path d="M285.608 57.5024H318.164V86.4086H285.608V57.5024Z" fill="#6C63FF"/>
<path d="M181 5.47168H213.556V34.3779H181V5.47168Z" fill="#6C63FF"/>
<path d="M181 57.5024H213.556V86.4086H181V57.5024Z" fill="white"/>
<path d="M232.934 5.47168H265.49V34.3779H232.934V5.47168Z" fill="#6C63FF"/>
<path d="M232.934 57.5024H265.49V86.4086H232.934V57.5024Z" fill="#6C63FF"/>
<path d="M265.397 10.8683C262.395 10.8683 259.962 8.43538 259.962 5.43417C259.962 2.43296 262.395 0 265.397 0C268.398 0 270.831 2.43296 270.831 5.43417C270.831 8.43538 268.398 10.8683 265.397 10.8683Z" fill="white"/>
<path d="M212.957 10.8683C209.956 10.8683 207.523 8.43538 207.523 5.43417C207.523 2.43296 209.956 0 212.957 0C215.958 0 218.391 2.43296 218.391 5.43417C218.391 8.43538 215.958 10.8683 212.957 10.8683Z" fill="white"/>
<path d="M317.836 63.0363C314.835 63.0363 312.402 60.6033 312.402 57.6021C312.402 54.6009 314.835 52.168 317.836 52.168C320.838 52.168 323.271 54.6009 323.271 57.6021C323.271 60.6033 320.838 63.0363 317.836 63.0363Z" fill="white"/>
<path d="M265.397 63.0363C262.395 63.0363 259.962 60.6033 259.962 57.6021C259.962 54.6009 262.395 52.168 265.397 52.168C268.398 52.168 270.831 54.6009 270.831 57.6021C270.831 60.6033 268.398 63.0363 265.397 63.0363Z" fill="white"/>
<path d="M75.5566 174.093L74.0617 181.744C74.0617 181.744 74.56 199.401 70.5737 197.635C66.5873 195.869 67.5839 180.567 67.5839 180.567L71.0719 172.916L75.5566 174.093Z" fill="#FFB8B8"/>
<path d="M53.3824 90.2235C58.8864 90.2235 63.3483 84.9535 63.3483 78.4526C63.3483 71.9517 58.8864 66.6816 53.3824 66.6816C47.8784 66.6816 43.4165 71.9517 43.4165 78.4526C43.4165 84.9535 47.8784 90.2235 53.3824 90.2235Z" fill="#FFB8B8"/>
<path d="M45.6589 81.7065L44.6624 98.7744L57.1198 100.54C57.1198 100.54 57.1198 86.4149 58.1163 84.6493C59.1129 82.8836 45.6589 81.7065 45.6589 81.7065Z" fill="#FFB8B8"/>
<path d="M73.3144 103.763L57.1783 95.6924C57.1783 95.6924 49.4701 88.6675 44.9485 93.8613L42.9184 97.2894C42.9184 97.2894 24.9797 105.529 24.9797 112.003L31.9559 144.373C31.9559 144.373 27.9695 162.618 33.9491 163.795L66.3383 167.327C66.3383 167.327 70.823 160.853 66.8366 152.613L68.3315 133.191L73.3144 103.763Z" fill="#575A89"/>
<path d="M62.3518 104.359L73.3143 103.771C73.3143 103.771 76.8024 104.948 79.2939 116.13C81.7853 127.312 82.2836 145.557 82.2836 145.557L76.3041 178.516L68.8297 177.339L71.8194 145.557L66.8365 124.37L62.3518 104.359Z" fill="#575A89"/>
<path d="M30.9591 107.889L25.5544 109.877C25.5544 109.877 20.9932 117.894 20.9932 122.014C20.9932 126.134 19 157.327 19 157.327L31.9557 182.635L35.9421 170.275L27.9693 154.384L34.4472 134.962L30.9591 107.889Z" fill="#575A89"/>
<path d="M67.8332 166.16L32.0073 162.437C32.0073 162.437 28.4678 189.113 28.9661 199.707C29.4644 210.301 29.9627 226.78 29.9627 226.78L25.9763 298.583L41.4235 296.229L43.4167 236.786L49.8945 204.416L57.369 245.614L62.3519 298.583L75.8059 296.817L71.3213 232.666C71.3213 232.666 75.3076 174.988 67.8332 166.16Z" fill="#2F2E41"/>
<path d="M72.816 293.871L77.3007 295.637C77.3007 295.637 86.7683 292.694 84.2768 300.345C81.7853 307.996 74.8092 306.819 74.8092 306.819C74.8092 306.819 66.3382 314.47 62.8501 308.585L64.8433 296.225L72.816 293.871Z" fill="#2F2E41"/>
<path d="M36.4405 293.871L40.9252 295.637C40.9252 295.637 50.3928 292.694 47.9013 300.345C45.4099 307.996 38.4337 306.819 38.4337 306.819C38.4337 306.819 29.9627 314.47 26.4746 308.585L28.4678 296.225L36.4405 293.871Z" fill="#2F2E41"/>
<path d="M45.6587 88.7608C45.6587 88.7608 35.1945 79.9326 40.6758 69.3387C44.4784 61.9893 52.3579 62.571 56.8275 63.6167C58.0317 63.8792 59.1638 64.4837 60.1261 65.378C61.0885 66.2723 61.8523 67.4296 62.3517 68.7502C63.0991 70.8101 63.0991 72.87 60.1093 72.87C54.1298 72.87 57.1195 78.1669 57.1195 78.1669C57.1195 78.1669 53.1332 79.344 54.1298 83.4639C55.1264 87.5837 45.6587 88.7608 45.6587 88.7608Z" fill="#2F2E41"/>
</svg>
